<svg height="512" viewBox="0 0 128 128" width="512" xmlns="http://www.w3.org/2000/svg"><g><g><circle cx="13.375" cy="13.375" fill="#8b818e" r="11.625"/><path d="m72.688 29.632c-26.782 0-26.782-4-53.563-4v64.555c26.781 0 26.781 4 53.563 4s26.781-4 53.562-4v-64.555c-26.781 0-26.781 4-53.562 4z" fill="#f1f1f4"/><circle cx="72.145" cy="61.91" fill="#e57373" r="16.41" transform="matrix(.707 -.707 .707 .707 -22.646 69.147)"/><path d="m13.375 25a11.555 11.555 0 0 1 -5.75-1.53v102.78h11.5v-102.78a11.555 11.555 0 0 1 -5.75 1.53z" fill="#c6c1c8"/></g><g><path d="m126.25 23.882a157.713 157.713 0 0 0 -27.04 2.018 154.7 154.7 0 0 1 -26.522 1.981 154.708 154.708 0 0 1 -26.523-1.981 154.642 154.642 0 0 0 -24.557-2.007 13.365 13.365 0 1 0 -15.733.548v56.953a1.75 1.75 0 0 0 3.5 0v-55.256a13.719 13.719 0 0 0 8 0v98.362h-8v-19.125a1.75 1.75 0 0 0 -3.5 0v20.875a1.751 1.751 0 0 0 1.75 1.75h11.5a1.751 1.751 0 0 0 1.75-1.75v-34.305a152.68 152.68 0 0 1 24.773 1.973 157.713 157.713 0 0 0 27.04 2.019 157.708 157.708 0 0 0 27.039-2.019 154.717 154.717 0 0 1 26.523-1.981 1.751 1.751 0 0 0 1.75-1.75v-64.555a1.751 1.751 0 0 0 -1.75-1.75zm-122.75-10.507a9.875 9.875 0 1 1 14.732 8.588 9.981 9.981 0 0 1 -9.714 0 9.876 9.876 0 0 1 -5.018-8.588zm121 75.068a155.426 155.426 0 0 0 -25.29 2.013 154.7 154.7 0 0 1 -26.522 1.981 154.708 154.708 0 0 1 -26.523-1.981 155.426 155.426 0 0 0 -25.29-2.013v-61.055a152.437 152.437 0 0 1 24.773 1.975 157.817 157.817 0 0 0 27.04 2.019 157.813 157.813 0 0 0 27.039-2.019 152.437 152.437 0 0 1 24.773-1.975z"/><path d="m83.483 49.919a1.749 1.749 0 0 0 -.192 2.467 14.661 14.661 0 1 1 -11.146-5.136 1.75 1.75 0 0 0 0-3.5 18.159 18.159 0 1 0 13.806 6.362 1.751 1.751 0 0 0 -2.468-.193z"/><path d="m7.625 96.594a1.751 1.751 0 0 0 1.75-1.75v-2.919a1.75 1.75 0 0 0 -3.5 0v2.919a1.751 1.751 0 0 0 1.75 1.75z"/></g></g></svg>